<svg xmlns="http://www.w3.org/2000/svg" width="1200" height="600" viewBox="0 0 1200 600" role="img" aria-label="Rapid Test Booking Platform demo preview"><rect width="1200" height="600" fill="#f5f7fb"/><text x="60" y="70" font-family="Arial" font-size="36" font-weight="700" fill="#1f2937">Rapid Test Booking Platform</text><text x="60" y="105" font-family="Arial" font-size="18" fill="#64748b">Demo preview of the booking flow.</text><g font-family="Arial"><g transform="translate(80 160)"><rect width="230" height="340" rx="24" fill="#fff" stroke="#d7dee8"/><circle cx="115" cy="55" r="24" fill="#ff8c1a"/><text x="115" y="64" text-anchor="middle" font-size="26" font-weight="700" fill="#fff">Y</text><text x="115" y="105" text-anchor="middle" font-size="20" font-weight="700" fill="#a6a8b8">YETA.APP</text><text x="115" y="170" text-anchor="middle" font-size="17" font-weight="700" fill="#1f2937">Demo Center</text><rect x="24" y="230" width="182" height="40" rx="4" fill="#709dad"/><text x="115" y="256" text-anchor="middle" font-size="13" font-weight="700" fill="#fff">ANMELDEN</text></g><g transform="translate(350 160)"><rect width="230" height="340" rx="24" fill="#fff" stroke="#d7dee8"/><rect width="230" height="46" rx="24" fill="#6f9dad"/><text x="115" y="30" text-anchor="middle" font-size="17" font-weight="700" fill="#fff">LEISTUNG</text><rect x="30" y="150" width="170" height="58" rx="6" fill="#fff" stroke="#d9dee7"/><text x="50" y="186" font-size="14" font-weight="700" fill="#1f2937">Rapid test</text><rect x="30" y="230" width="170" height="58" rx="6" fill="#fff" stroke="#d9dee7"/><text x="50" y="266" font-size="14" font-weight="700" fill="#1f2937">PCR test</text></g><g transform="translate(620 160)"><rect width="230" height="340" rx="24" fill="#fff" stroke="#d7dee8"/><rect width="230" height="46" rx="24" fill="#6f9dad"/><text x="115" y="30" text-anchor="middle" font-size="17" font-weight="700" fill="#fff">TERMIN</text><rect x="22" y="100" width="186" height="190" rx="6" fill="#fff" stroke="#d9dee7"/><rect x="42" y="150" width="54" height="34" rx="4" fill="#709dad"/><rect x="108" y="150" width="54" height="34" rx="4" fill="#5edfd1"/><rect x="42" y="200" width="54" height="34" rx="4" fill="#709dad"/><rect x="108" y="200" width="54" height="34" rx="4" fill="#709dad"/></g><g transform="translate(890 160)"><rect width="230" height="340" rx="24" fill="#fff" stroke="#d7dee8"/><rect width="230" height="46" rx="24" fill="#6f9dad"/><text x="115" y="30" text-anchor="middle" font-size="17" font-weight="700" fill="#fff">DATEN</text><rect x="58" y="150" width="114" height="34" rx="17" fill="#ff8c1a"/><text x="115" y="172" text-anchor="middle" font-size="13" font-weight="700" fill="#fff">test person</text><rect x="40" y="250" width="150" height="40" rx="4" fill="#709dad"/><text x="115" y="276" text-anchor="middle" font-size="13" font-weight="700" fill="#fff">JETZT BUCHEN</text></g></g></svg>